<?xml version="1.0" standalone="no"?><!DOCTYPE svg PUBLIC "-//W3C//DTD SVG 1.1//EN" "http://www.w3.org/Graphics/SVG/1.1/DTD/svg11.dtd"><svg t="1534128940267" class="icon" style="" viewBox="0 0 1139 1024" version="1.1" xmlns="http://www.w3.org/2000/svg" p-id="11385" xmlns:xlink="http://www.w3.org/1999/xlink" width="71.1875" height="64"><defs><style type="text/css"></style></defs><path d="M1056.027802 0H83.628149C37.365769 0 0 37.365769 0 83.628149v634.328411c0 46.262381 37.365769 83.628149 83.628149 83.628149h972.399653c46.262381 0 83.628149-37.365769 83.628149-83.628149V83.628149c0-46.262381-37.365769-83.628149-83.628149-83.628149z m27.579496 723.294526c0 11.565595-9.786273 20.462207-21.351868 21.351868l-984.854909 1.779323c-11.565595 0-20.462207-9.786273-21.351868-21.351868L55.158992 74.731538c0-11.565595 9.786273-20.462207 21.351868-21.351868l986.634231 2.668983c11.565595 0 20.462207 9.786273 21.351868 21.351868v645.894005zM891.440487 943.040834l-624.542138-1.779322h-3.558644c-22.241529 1.779322-39.145091 21.351868-37.365769 43.593397 1.779322 19.572546 16.903562 35.586447 37.365769 37.365769h3.558644l620.093832 1.779322h3.558644c22.241529-1.779322 39.145091-22.241529 36.476108-44.483058-0.889661-19.572546-16.013901-34.696785-35.586446-36.476108z" fill="#ffffff" p-id="11386"></path><path d="M255.332754 278.463944H400.347524c-7.117289-11.565595-16.013901-25.800174-26.689835-41.814074l26.689835-15.12424c11.565595 15.12424 22.241529 30.24848 32.027802 44.483058l-20.462207 11.565595H560.486533v29.358819H287.360556v89.855777c0 76.51086-19.572546 137.007819-59.607298 181.490878-5.337967-6.227628-14.234579-13.344917-25.800174-23.131191 35.586447-38.25543 53.37967-92.524761 53.37967-162.807993V278.463944zM580.94874 367.430061h172.594266v-59.607298h-97.862728c-9.786273 19.572546-20.462207 37.365769-32.027802 53.37967-8.00695-5.337967-16.903562-11.565595-26.689835-16.903562 26.689835-34.696785 46.262381-72.952215 59.607298-113.876629l30.24848 8.896611c-5.337967 14.234579-11.565595 28.469157-16.903562 41.814075h85.407471v-56.938315h30.24848v56.938315h125.442224v26.689835H783.791486v59.607298h153.02172v26.689835h-355.864466v-26.689835z m48.931364 65.834926h258.891399V578.279757h-29.358818v-18.682885H659.238923V578.279757h-29.358819V433.264987z m229.532581 25.800174H659.238923V533.796699h200.173762v-74.731538z" fill="#ffffff" p-id="11387"></path></svg>