<?xml version="1.0" standalone="no"?><!DOCTYPE svg PUBLIC "-//W3C//DTD SVG 1.1//EN" "http://www.w3.org/Graphics/SVG/1.1/DTD/svg11.dtd"><svg t="1534132420105" class="icon" style="" viewBox="0 0 1305 1024" version="1.1" xmlns="http://www.w3.org/2000/svg" p-id="16121" xmlns:xlink="http://www.w3.org/1999/xlink" width="81.5625" height="64"><defs><style type="text/css"></style></defs><path d="M1305.499162 183.763579A186.700818 186.700818 0 0 0 1126.265549 0.165478L1126.100071 0H182.33633l-0.04137 0.04137A186.721503 186.721503 0 0 0 0.124109 180.743602L0 180.888395v665.160449l0.227533 0.144793c4.592021 97.50805 83.980204 175.489668 182.088112 177.764993l0.041369 0.062055h943.763741l0.165479-0.144794a186.721503 186.721503 0 0 0 179.233612-183.577416l0.020685-0.04137-0.041369-656.493526z m-46.644178 653.535603a140.035956 140.035956 0 0 1-140.035956 140.035956H186.721503a140.035956 140.035956 0 0 1-140.035956-140.056641V186.700818a140.035956 140.035956 0 0 1 140.035956-140.035956H1118.839713a140.035956 140.035956 0 0 1 140.035956 140.035956v650.598364z" fill="#ffffff" p-id="16122"></path><path d="M1096.934532 700.159095a23.353116 23.353116 0 1 0 0-46.664862H863.548167a23.332431 23.332431 0 1 0 0 46.664862h233.386365zM1096.934532 536.790708a23.353116 23.353116 0 1 0 0-46.664862H816.883305a23.353116 23.353116 0 1 0 0 46.664862h280.051227zM1096.934532 373.422321a23.373801 23.373801 0 0 0 0-46.685547H816.883305a23.353116 23.353116 0 1 0 0 46.685547h280.051227zM567.52829 541.796425a186.700818 186.700818 0 1 0-198.491142 0C263.379295 581.862842 188.231492 684.004282 188.231492 803.727785a23.353116 23.353116 0 0 0 46.685547 0c0-128.88686 104.499505-233.386365 233.386365-233.386365s233.386365 104.47882 233.386365 233.386365a23.332431 23.332431 0 1 0 46.685547 0c-0.04137-119.723503-75.189173-221.885628-180.847026-261.93136z m-99.266256-18.119867a140.056641 140.056641 0 1 1 0-280.113282 140.056641 140.056641 0 0 1 0 280.113282z" fill="#ffffff" p-id="16123"></path></svg>