<?xml version="1.0" standalone="no"?><!DOCTYPE svg PUBLIC "-//W3C//DTD SVG 1.1//EN" "http://www.w3.org/Graphics/SVG/1.1/DTD/svg11.dtd"><svg t="1534132059439" class="icon" style="" viewBox="0 0 1024 1024" version="1.1" xmlns="http://www.w3.org/2000/svg" p-id="15224" xmlns:xlink="http://www.w3.org/1999/xlink" width="64" height="64"><defs><style type="text/css"></style></defs><path d="M745.164 1022.25c-3.409 0-6.289-2.838-6.289-6.193V990.98l-0.012-0.303c-0.753-18.041-12.159-33.588-29.107-39.73l-34.09-14.129a43.92 43.92 0 0 0-18.609-4.102 44.195 44.195 0 0 0-29.874 11.588l-0.234 0.215-17.879 17.832a6.248 6.248 0 0 1-4.403 1.834 6.222 6.222 0 0 1-4.378-1.813L570.88 933.16c-2.39-2.49-2.394-6.486-0.011-8.979l17.975-17.777 0.264-0.291c12.058-13.287 14.944-32.303 7.402-48.551l-14.136-34.02c-6.157-16.793-21.624-28.186-39.516-29.068l-0.357-0.018h-25.324c-3.3 0-6.195-2.916-6.195-6.24v-41.404c0.001-3.441 2.804-6.244 6.249-6.246h25.251l0.336-0.016a44.472 44.472 0 0 0 39.696-28.955l13.949-33.951c7.878-15.629 4.637-36.633-7.697-49.197l-17.765-17.715a6.14 6.14 0 0 1-1.806-4.371c0-1.66 0.646-3.219 1.817-4.389l29.353-29.303a6.27 6.27 0 0 1 4.448-1.842c0.972 0 2.841 0.24 4.445 1.84l17.898 17.9 0.264 0.24a44.451 44.451 0 0 0 29.91 11.535 44.196 44.196 0 0 0 18.61-4.078l33.982-14.094c16.905-6.184 28.303-21.74 29.081-39.754l0.015-0.313V518.92c0.009-3.396 2.81-6.191 6.245-6.191h41.499c3.436 0 6.235 2.795 6.244 6.229v25.137l0.013 0.299c0.747 18.023 12.14 33.604 29.059 39.787l34.086 13.977a44.48 44.48 0 0 0 18.724 4.164c11.052 0 21.635-4.1 29.799-11.543l0.248-0.225 17.842-17.842c1.595-1.592 3.467-1.832 4.439-1.832s2.842 0.24 4.444 1.84l29.391 29.193c2.392 2.494 2.393 6.498 0.003 8.99l-17.876 17.771-0.242 0.268c-12.068 13.256-14.984 32.24-7.482 48.482l14.021 34.199a44.776 44.776 0 0 0 39.678 28.93l0.363 0.018h25.286c1.605 0 3.172 0.652 4.298 1.789a6.089 6.089 0 0 1 1.751 4.314l-0.001 41.543c-0.008 3.461-2.845 6.33-6.332 6.387h-25.08l-0.294 0.012c-17.981 0.732-33.558 12.074-39.783 28.928l-14.045 34.084c-7.546 16.24-4.653 35.234 7.423 48.506l0.23 0.252 17.846 17.842c2.439 2.443 2.439 6.438-0.011 8.891l-29.25 29.246c-1.595 1.594-3.466 1.832-4.438 1.832a6.261 6.261 0 0 1-4.446-1.84l-17.832-17.834-0.248-0.227a44.289 44.289 0 0 0-29.895-11.574 44.05 44.05 0 0 0-18.618 4.096l-33.944 14.047c-16.738 5.586-29.273 22.826-29.273 40.422v24.771c0 3.299-2.895 6.193-6.191 6.193h-41.505z m-515.217-4.475c-60.58 0-117.535-23.594-160.371-66.43C26.74 908.51 3.148 851.553 3.148 790.973S26.74 673.438 69.575 630.602c42.837-42.836 99.791-66.428 160.372-66.428l186.909 0.004c21.996 0 39.891 17.895 39.891 39.891v186.906c-0.001 60.58-23.593 117.535-66.429 160.371s-99.791 66.429-160.371 66.429z m0-398.644c-45.902 0-89.057 17.873-121.513 50.328-32.458 32.455-50.332 75.609-50.332 121.514 0 45.902 17.874 89.057 50.332 121.516 32.456 32.455 75.611 50.328 121.513 50.328 45.903 0 89.057-17.873 121.513-50.328 32.458-32.461 50.333-75.617 50.333-121.516V619.131H229.947z m0-163.782c-60.581 0-117.535-23.591-160.372-66.428-42.835-42.835-66.427-99.79-66.427-160.37 0-60.581 23.592-117.535 66.427-160.373C112.412 25.342 169.366 1.75 229.947 1.75c60.581 0 117.535 23.592 160.371 66.428 42.836 42.838 66.427 99.792 66.427 160.375v186.906c0 21.995-17.895 39.89-39.889 39.89H229.947z m0-398.643c-45.902 0-89.058 17.875-121.515 50.332C75.975 139.492 58.1 182.647 58.1 228.551c0 45.901 17.875 89.055 50.332 121.511 32.457 32.457 75.611 50.332 121.513 50.332h171.846V228.55c0-45.902-17.875-89.057-50.332-121.513-32.455-32.457-75.609-50.331-121.512-50.331z m375.512 398.641c-21.994 0-39.888-17.894-39.888-39.888V228.55c0.001-60.581 23.591-117.536 66.428-160.373S731.791 1.75 792.372 1.75c60.579 0 117.534 23.592 160.37 66.428 42.837 42.837 66.428 99.792 66.426 160.372 0 60.582-23.591 117.536-66.428 160.372-42.836 42.837-99.792 66.428-160.372 66.428l-186.909-0.003zM792.372 56.705c-45.905 0-89.061 17.875-121.515 50.332-32.457 32.458-50.332 75.613-50.332 121.515v171.843h171.847c45.903 0 89.057-17.875 121.511-50.333 32.455-32.453 50.331-75.605 50.331-121.51 0-45.908-17.875-89.063-50.33-121.516-32.455-32.457-75.61-50.331-121.512-50.331z" fill="#ffffff" p-id="15225"></path><path d="M869.62 767.439c0 57.303-46.278 103.633-103.584 103.633-57.176 0-103.531-46.355-103.531-103.533s46.355-103.533 103.531-103.533A103.386 103.386 0 0 1 869.62 767.439z" fill="#ffffff" p-id="15226"></path><path d="M766.036 856.588c-49.101 0-89.049-39.947-89.049-89.049s39.948-89.049 89.049-89.049h0.193c23.726 0 46.035 9.23 62.821 25.992 16.832 16.809 26.097 39.166 26.087 62.951 0.001 49.163-39.97 89.155-89.101 89.155z" fill="#ffffff" p-id="15227"></path></svg>