<?xml version="1.0" standalone="no"?><!DOCTYPE svg PUBLIC "-//W3C//DTD SVG 1.1//EN" "http://www.w3.org/Graphics/SVG/1.1/DTD/svg11.dtd"><svg t="1534131759894" class="icon" style="" viewBox="0 0 1172 1024" version="1.1" xmlns="http://www.w3.org/2000/svg" p-id="14108" xmlns:xlink="http://www.w3.org/1999/xlink" width="73.25" height="64"><defs><style type="text/css"></style></defs><path d="M206.005179 747.210671h441.898783v73.033817h-441.898783z" fill="#ffffff" p-id="14109"></path><path d="M978.765634 1024H152.655944a156.271479 156.271479 0 0 1-152.655944-154.825265V36.557081A36.557081 36.557081 0 0 1 36.557081 0h785.133621a36.557081 36.557081 0 0 1 36.557081 36.557081v695.30765h-73.033817V74.480031H73.033817v796.140918a83.237662 83.237662 0 0 0 79.622127 80.345234h826.10969z" fill="#ffffff" p-id="14110"></path><path d="M978.765634 1024a193.471322 193.471322 0 0 1-193.551668-193.551667V326.523029a36.557081 36.557081 0 0 1 36.476736-36.557082h314.069518a36.557081 36.557081 0 0 1 36.557081 36.557082v505.451863a193.551667 193.551667 0 0 1-193.551667 192.025108z m-120.517851-661.000235v468.975127a120.51785 120.51785 0 1 0 241.035701 0V362.999765zM609.900667 647.903962H244.651236a36.557081 36.557081 0 0 1-36.476736-36.557081V246.177795a36.557081 36.557081 0 0 1 36.476736-36.557081h365.249431a36.557081 36.557081 0 0 1 36.476736 36.557081v365.169086a36.557081 36.557081 0 0 1-36.476736 36.557081z m-331.584778-73.033817H570.451157V282.654531H278.315889z" fill="#ffffff" p-id="14111"></path></svg>