<?xml version="1.0" standalone="no"?><!DOCTYPE svg PUBLIC "-//W3C//DTD SVG 1.1//EN" "http://www.w3.org/Graphics/SVG/1.1/DTD/svg11.dtd"><svg t="1534131526448" class="icon" style="" viewBox="0 0 1024 1024" version="1.1" xmlns="http://www.w3.org/2000/svg" p-id="13209" xmlns:xlink="http://www.w3.org/1999/xlink" width="64" height="64"><defs><style type="text/css"></style></defs><path d="M996.53632 851.18464c4.74624 14.2336 0 28.5952-9.61536 38.08256-9.49248 9.62048-23.85408 19.10784-38.08768 19.10784H73.23648c-14.29504 0-28.5952-4.74624-38.14912-19.10784-9.49248-14.2336-9.49248-23.84896-9.49248-38.08256l95.34464-428.69248c4.74624-23.84896 23.78752-29.88032 47.6416-29.88032h57.06752c28.5952 0 47.6416 5.25824 47.6416 33.85344s-19.04128 37.05856-47.6416 37.05856h-57.1904L92.15488 844.9024h838.85568l-76.17024-381.37344h-57.19552c-28.5952 0-47.69792-11.28448-47.69792-39.87968 0-28.60032 30.52032-36.29056 59.11552-36.29056h55.7824c23.85408 0 42.96192 14.22848 47.70304 38.08256l83.98848 425.74336z" fill="#e6e6e6" p-id="13210"></path><path d="M401.9712 420.69504c-23.78752-14.36672-52.38272-4.74624-61.94176 19.10272-14.29504 18.97984-9.55392 47.58016 14.30016 61.94176l109.63968 61.94176v147.73248c0 28.5952 11.15648 47.69792 39.7568 47.69792 28.5952 0 38.53312-19.10272 38.53312-47.69792v-147.73248l109.63968-61.94176c23.85408-14.3616 28.60032-42.96192 19.0464-66.81088-14.30016-23.72608-42.89536-28.60032-66.74944-18.97984l-61.93664 38.08256V368.24576l109.63968-61.93664c23.85408-14.36672 28.60032-42.96192 19.0464-66.816-14.30016-23.72096-42.89536-28.5952-66.74944-18.97472l-61.93664 38.08256V163.32288c0-28.5952-9.93792-47.70304-38.53312-47.70304-28.60032 0-39.7568 19.10784-39.7568 47.70304v95.27808l-61.99808-33.34144c-23.78752-14.36672-52.38272-4.74624-61.94176 19.10272-14.29504 18.97984-9.55392 47.57504 14.30016 61.94176l109.63968 61.93664v85.79072l-61.99808-33.33632z" fill="#e6e6e6" p-id="13211"></path></svg>