<?xml version="1.0" standalone="no"?><!DOCTYPE svg PUBLIC "-//W3C//DTD SVG 1.1//EN" "http://www.w3.org/Graphics/SVG/1.1/DTD/svg11.dtd"><svg t="1535332722306" class="icon" style="" viewBox="0 0 1024 1024" version="1.1" xmlns="http://www.w3.org/2000/svg" p-id="1943" xmlns:xlink="http://www.w3.org/1999/xlink" width="128" height="128"><defs><style type="text/css"></style></defs><path d="M574.783 1021.214c-41.165 0-74.655-33.49-74.655-74.656V699.573c0-41.167 33.49-74.662 74.655-74.662h340.839c41.165 0 74.655 33.492 74.655 74.662v246.985c0 41.165-33.489 74.656-74.655 74.656H574.783z m0-361.136c-21.777 0-39.493 17.717-39.493 39.495v246.983c0 21.775 17.716 39.49 39.493 39.49h340.839c21.775 0 39.49-17.716 39.49-39.49V699.57c0-21.778-17.716-39.497-39.49-39.497l-340.839 0.003z" fill="#ffffff" p-id="1944"></path><path d="M653.819 786.311c-9.697 0-17.585-7.889-17.585-17.588 0-9.696 7.888-17.585 17.585-17.585h190.176c9.697 0 17.585 7.889 17.585 17.585 0 9.698-7.888 17.588-17.585 17.588H653.819z m0 123.494c-9.696 0-17.585-7.889-17.585-17.586 0-9.696 7.889-17.585 17.585-17.585h123.49c9.696 0 17.585 7.889 17.585 17.585-0.001 9.697-7.889 17.586-17.585 17.586h-123.49zM396.183 993.78c-159.474 0-205.477-7.734-263.73-31.014C17.809 910.803-12.61 793.792 125.782 721.05c26.042-14.974 59.651-31.99 102.758-45.929 46.05-14.886 91.491-24.848 121.503-30.583l9.574-1.829V573.44l-3.252-3.413c-40.543-42.564-69.28-88.265-87.858-139.711-18.468-51.126-27.445-110.086-27.445-180.252 0-78.877 20.017-140.539 59.494-183.276C339.787 24.32 396.319 2.786 468.582 2.786c76.031 0 138.688 27.188 181.196 78.626 38.383 46.452 58.673 109.897 58.673 183.473 0 138.065-67.774 222.483-70.658 226.01-3.242 3.947-8.123 6.446-13.587 6.446h-0.042c-4.093 0-7.937-1.373-11.116-3.975-7.482-6.116-8.607-17.193-2.512-24.691 0.723-0.905 16.476-20.79 31.871-55.601 14.087-31.866 30.88-83.44 30.88-148.188 0-53.236-14.762-226.935-204.704-226.935-65.85 0-115.599 19.958-147.865 59.319-29.52 36.022-44.485 87.429-44.485 152.796 0 135.174 32.854 223.163 113.397 303.7a17.655 17.655 0 0 1 5.15 12.459v91.343c0 8.74-6.259 16.057-14.883 17.396-0.681 0.105-71.938 11.381-141.121 33.81-42.618 13.817-90.483 37.73-112.994 53.585-54.563 37.451-94.974 108.085 27.078 167.38 80.199 30.902 113.028 29.481 247.903 29.481 9.37 2.547 14.911 12.23 12.371 21.587-2.043 7.513-8.81 12.799-16.544 12.976h-0.409z" fill="#ffffff" p-id="1945"></path></svg>