<?xml version="1.0" standalone="no"?><!DOCTYPE svg PUBLIC "-//W3C//DTD SVG 1.1//EN" "http://www.w3.org/Graphics/SVG/1.1/DTD/svg11.dtd"><svg t="1534128709015" class="icon" style="" viewBox="0 0 1024 1024" version="1.1" xmlns="http://www.w3.org/2000/svg" p-id="10073" xmlns:xlink="http://www.w3.org/1999/xlink" width="64" height="64"><defs><style type="text/css"></style></defs><path d="M512 1017.321739C232.937739 1017.321739 6.678261 791.062261 6.678261 512S232.937739 6.678261 512 6.678261 1017.321739 232.937739 1017.321739 512 791.062261 1017.321739 512 1017.321739z m0-31.165217c261.87687 0 474.156522-212.279652 474.156522-474.156522C986.156522 250.12313 773.87687 37.843478 512 37.843478 250.12313 37.843478 37.843478 250.12313 37.843478 512c0 261.87687 212.279652 474.156522 474.156522 474.156522z" fill="#ffffff" p-id="10074"></path><path d="M647.257043 429.234087a31.788522 31.788522 0 0 1 20.48 0.578783c34.726957 11.931826 70.745043 79.426783 112.461914 190.196869 24.130783 63.977739 49.018435 141.935304 56.631652 169.761391l5.342608 19.678609H181.737739l4.897391-19.366956a4370.253913 4370.253913 0 0 1 74.974609-257.246609c21.370435-64.556522 42.073043-119.674435 61.796174-162.637913 27.158261-59.213913 51.2-94.074435 74.707478-101.687652a34.281739 34.281739 0 0 1 27.870609-0.089044c45.81287 16.027826 96.077913 109.078261 153.778087 260.719305 24.264348-59.12487 45.278609-92.827826 67.494956-99.906783z m-53.203478 149.147826l-14.692174 39.624348-14.558608-39.713391c-58.857739-161.03513-113.352348-267.976348-150.438957-280.932174-1.469217-0.712348-2.80487-0.75687-4.897391 0.133565-13.356522 4.36313-34.459826 34.860522-57.744696 85.659826-19.144348 41.805913-39.490783 95.944348-60.505043 159.432348a4339.222261 4339.222261 0 0 0-69.320348 235.698087h579.138782a2642.810435 2642.810435 0 0 0-49.997913-147.277913c-36.953043-98.214957-72.125217-164.151652-94.297043-172.076522-12.911304 4.808348-36.730435 49.597217-62.686609 119.451826z m62.508522-119.496348a0.445217 0.445217 0 0 1 0.133565 0.044522l-0.133565-0.044522z m-63.666087-81.074087a83.077565 83.077565 0 0 1 0-166.066087 83.077565 83.077565 0 0 1 0 166.066087z m0-31.165217a51.912348 51.912348 0 0 0 0-103.735652 51.912348 51.912348 0 0 0 0 103.735652z" fill="#ffffff" p-id="10075"></path></svg>