<?xml version="1.0" standalone="no"?><!DOCTYPE svg PUBLIC "-//W3C//DTD SVG 1.1//EN" "http://www.w3.org/Graphics/SVG/1.1/DTD/svg11.dtd"><svg t="1534138741118" class="icon" style="" viewBox="0 0 1024 1024" version="1.1" xmlns="http://www.w3.org/2000/svg" p-id="17027" xmlns:xlink="http://www.w3.org/1999/xlink" width="64" height="64"><defs><style type="text/css"></style></defs><path d="M918.272 746.88l-29.568-2.048a6.272 6.272 0 0 1-4.288-2.368l-0.896-2.688a5.696 5.696 0 0 1 1.024-5.184l19.456-22.336a29.12 29.12 0 0 0-1.344-39.68l-28.608-28.8a30.08 30.08 0 0 0-39.68-1.024l-22.336 19.264a5.696 5.696 0 0 1-5.184 1.088l-2.176-0.96a6.016 6.016 0 0 1-2.944-4.416l-2.112-29.376a29.248 29.248 0 0 0-28.928-27.328h-40.448a29.44 29.44 0 0 0-28.992 27.328l-2.048 29.568a5.76 5.76 0 0 1-3.968 4.672l-0.256 0.128c-1.728 0.768-3.84 1.28-6.08-0.704l-22.336-19.264a29.952 29.952 0 0 0-39.808 1.152l-28.544 28.544a29.504 29.504 0 0 0-1.28 39.936l19.392 22.208c1.536 1.856 1.408 4.416 0.704 6.08l-0.256 0.768c-1.088 2.048-2.688 3.328-4.736 3.456l-29.376 1.984a29.44 29.44 0 0 0-27.264 28.992v40.448c0 15.232 12.096 28.032 27.264 28.928l29.568 2.112c1.6 0.128 3.264 1.344 4.224 2.944l0.832 1.792a5.632 5.632 0 0 1-0.96 5.568l-19.264 22.336a29.184 29.184 0 0 0 1.024 39.68l28.672 28.608c10.24 10.304 28.608 10.944 39.808 1.344l22.336-19.456c2.24-1.984 4.288-1.344 6.08-0.64l1.216 0.512c1.728 1.024 2.88 2.56 3.008 4.288l2.048 29.568a29.504 29.504 0 0 0 28.992 27.264h40.448a29.248 29.248 0 0 0 28.928-27.264l2.112-29.44a5.76 5.76 0 0 1 3.456-4.672l0.64-0.256c1.792-0.768 3.968-1.28 6.272 0.64l22.336 19.456a29.632 29.632 0 0 0 39.68-1.344l28.736-28.608a29.44 29.44 0 0 0 1.216-39.68l-19.456-22.336c-1.28-1.536-1.472-3.712-0.768-5.888l0.128-0.512c1.024-2.24 2.816-3.712 4.8-3.968l29.44-2.112a29.184 29.184 0 0 0 27.392-28.928v-40.448a29.568 29.568 0 0 0-27.328-28.928z m-4.608 66.944l-27.136 1.856a37.12 37.12 0 0 0-30.912 21.312l-1.344 2.432a37.44 37.44 0 0 0 6.144 38.976l17.856 20.672-24.896 24.896-20.672-17.856a38.592 38.592 0 0 0-37.632-6.656l-1.6 0.64a37.504 37.504 0 0 0-23.488 32.128l-1.856 27.136h-35.392l-1.92-27.136a37.76 37.76 0 0 0-23.808-32.256l-0.512-0.128a1.792 1.792 0 0 0-0.768-0.256v-0.128a38.336 38.336 0 0 0-37.696 6.72l-20.224 18.112-25.28-25.28 17.856-20.672a37.632 37.632 0 0 0 6.464-37.76l-0.896-2.176a37.056 37.056 0 0 0-31.68-22.784l-27.136-1.856v-35.392l27.136-1.92a37.568 37.568 0 0 0 32.064-23.424l0.512-1.6a37.248 37.248 0 0 0-6.592-37.696l-17.728-20.48 24.832-25.024 20.672 17.856a36.352 36.352 0 0 0 37.824 6.464l1.472-0.512a37.504 37.504 0 0 0 23.424-32.064l1.92-27.136h35.392l1.856 27.264c1.024 13.696 9.344 25.6 22.208 31.296l1.536 0.64a0.384 0.384 0 0 0 0.256 0.128l1.024 0.512a38.4 38.4 0 0 0 37.76-6.592l20.288-18.24 25.28 25.344-17.856 20.48a37.312 37.312 0 0 0-6.016 39.04v0.256a2.816 2.816 0 0 0 0.384 0.64l0.128 0.384c5.76 12.928 17.792 21.44 31.488 22.464l27.264 1.92v35.456z" fill="#ffffff" p-id="17028"></path><path d="M750.4 708.672a87.424 87.424 0 1 0 0.128 174.848 87.424 87.424 0 0 0-0.128-174.848z m0 153.728a66.24 66.24 0 0 1 0-132.48 66.24 66.24 0 0 1 0 132.48zM587.2 548.032c-20.416 17.6-31.168 36.16-32 54.976-0.832 20.992 11.072 33.92 12.352 35.328 5.888 6.208 15.68 6.4 22.016 0.512a16.256 16.256 0 0 0 1.088-22.464 17.344 17.344 0 0 1-3.584-12.48c0.64-9.472 7.872-20.48 20.928-31.808 49.792-42.944 78.208-111.04 76.288-332.096a142.592 142.592 0 0 0-14.08-60.544c-22.336-46.08-94.72-133.184-209.472-133.184S273.6 133.376 251.328 179.456a142.08 142.08 0 0 0-14.144 60.544c-1.792 221.056 26.56 289.152 76.352 332.096 13.056 11.264 20.288 22.272 20.992 31.808a19.2 19.2 0 0 1-2.496 11.008l-212.736 115.904a59.328 59.328 0 0 0-31.104 52.224v53.376c0 25.344 20.544 45.888 45.888 45.888h382.848a15.936 15.936 0 0 0 0-31.808H134.08a14.08 14.08 0 0 1-14.08-14.08v-53.376c0-10.112 5.568-19.584 14.528-24.384l215.68-117.376 3.84-2.944c1.28-1.408 13.184-14.336 12.288-35.328-0.832-18.816-11.648-37.376-32.064-54.976-34.048-29.376-67.136-77.44-65.28-307.776a109.44 109.44 0 0 1 10.944-46.912c19.264-39.872 81.856-115.2 180.8-115.2 98.88 0 161.536 75.392 180.8 115.2 6.976 14.592 10.944 30.784 11.072 46.912 1.792 230.272-31.296 278.336-65.408 307.776z" fill="#ffffff" p-id="17029"></path></svg>