<?xml version="1.0" standalone="no"?><!DOCTYPE svg PUBLIC "-//W3C//DTD SVG 1.1//EN" "http://www.w3.org/Graphics/SVG/1.1/DTD/svg11.dtd"><svg t="1535332945399" class="icon" style="" viewBox="0 0 1310 1024" version="1.1" xmlns="http://www.w3.org/2000/svg" p-id="3684" xmlns:xlink="http://www.w3.org/1999/xlink" width="163.75" height="128"><defs><style type="text/css"></style></defs><path d="M956.943 1024h-701c-77.406 0-140.177-61.17-140.177-136.632V750.849h70.088v136.519c0 37.73 31.443 68.259 70.089 68.259H956.94c38.76 0 70.087-30.527 70.087-68.26V136.519c0-37.731-31.442-68.259-70.087-68.259H255.943c-38.76 0-70.089 30.528-70.089 68.26v136.517h-70.088V136.518C115.766 61.17 178.536 0 255.943 0H956.94c77.406 0 140.177 61.17 140.177 136.518v750.964c0.002 75.348-62.77 136.518-140.175 136.518z" fill="#ffffff" p-id="3685"></path><path d="M364.128 300.018l-185.967 176.62 270.614 3.393c19.435 0.243 34.907 15.759 34.67 34.624-0.24 18.976-16.206 33.986-35.528 33.743l-270.614-3.392 181.483 181.227c13.439 13.431 13.167 35.04-0.605 48.246-13.887 13.204-36.066 12.927-49.619-0.622L69.712 535.312c-7.228-7.18-10.197-16.71-9.622-25.963-0.342-9.267 2.864-18.717 10.27-25.715L315.115 251.15c13.888-13.203 36.066-12.924 49.62 0.623 13.437 13.434 13.165 35.04-0.607 48.246zM718.206 590.55v-51.794h-103.36c-21.723 0-32.47-7.66-32.47-22.982s10.747-24.01 32.47-25.84h70.892L564.652 308.709c-1.944 0-4.002-1.943-5.945-5.717-4.002-5.716-5.946-13.377-5.946-22.981 0-13.378 8.804-22.067 26.526-25.84 13.72 1.943 25.612 8.575 35.443 20.123l135.834 198.488 135.83-198.488c7.89-11.548 19.67-18.18 35.446-20.123 15.777 3.887 24.581 12.462 26.528 25.84 0 5.717-2.973 13.491-8.919 22.981-1.942 1.944-2.972 3.888-2.972 5.717l-120.74 181.224h70.889c19.666 1.944 30.53 10.519 32.473 25.84-1.942 15.321-12.807 22.982-32.473 22.982h-103.36v51.794h103.36c19.666 1.943 30.53 10.518 32.473 25.84-1.942 15.322-12.807 22.982-32.473 22.982h-103.36v115.021c-1.946 19.21-12.808 28.815-32.474 28.815-21.725 0-32.473-9.604-32.473-28.813V639.485H614.96c-21.723 0-32.47-7.66-32.47-22.981 0-15.323 10.747-23.898 32.47-25.84h103.246v-0.115h0.001z" fill="#ffffff" p-id="3686"></path></svg>